PathFileType	4	(X/Y/Z)	19_1_4_p0_0-244_filt_butterworth.trc
DataRate	CameraRate	NumFrames	NumMarkers	Units	OrigDataRate	OrigDataStartFrame	OrigNumFrames
60.0	60.0	7	27	m	60.0	91	244
Frame#	Time	RHip			RKnee			RAnkle			RBigToe			RSmallToe			RHeel			LHip			LKnee			LAnkle			LBigToe			LSmallToe			LHeel			Neck			Head			Nose			RShoulder			RElbow			RWrist			RThumb			RIndex			RPinky			LShoulder			LElbow			LWrist			LThumb			LIndex			LPinky			
		X1	Y1	Z1	X2	Y2	Z2	X3	Y3	Z3	X4	Y4	Z4	X5	Y5	Z5	X6	Y6	Z6	X7	Y7	Z7	X8	Y8	Z8	X9	Y9	Z9	X10	Y10	Z10	X11	Y11	Z11	X12	Y12	Z12	X13	Y13	Z13	X14	Y14	Z14	X15	Y15	Z15	X16	Y16	Z16	X17	Y17	Z17	X18	Y18	Z18	X19	Y19	Z19	X20	Y20	Z20	X21	Y21	Z21	X22	Y22	Z22	X23	Y23	Z23	X24	Y24	Z24	X25	Y25	Z25	X26	Y26	Z26	X27	Y27	Z27	
91	1.5166666666666666	0.2941324404487405	0.505671413196931	0.8719596004986778	0.2861020022762353	0.5612169804737803	1.3057202526752254	0.27052451605356004	0.5899713352568015	1.7367686242879579	0.27338699648091047	0.37460206732265405	1.7319680142752976	0.33581884626669106	0.3962385824983935	1.7306842463592444	0.24120459755368973	0.6557644763272142	1.8022880688035214	0.07261252169774306	0.5299267072915312	0.8842982345704593	0.07550245544757325	0.5454485377283981	1.3022551639608537	0.07142641816203796	0.546301043578998	1.7334432796436952	0.10876916262712627	0.34237556548203596	1.7310485545504766	0.050037548560559565	0.3918971476205666	1.751169763865549	0.0838624618518637	0.5699254557004365	1.7755239096443205	0.18909764470056772	0.5298479143703478	0.31248443535868614	0.21020362586407512	0.49402062545026193	0.04413551041742221	0.1974527420268336	0.4027411009004428	0.18961957364649729	0.3356237537130162	0.5157551117775618	0.40154128179329895	0.40270744743718184	0.546529074501451	0.6750973507181623	0.4091453377923501	0.4275653442630744	0.8929484358772801	0.35416938501136014	0.40800215950838215	1.0137956785197721	0.38357508793204836	0.3945462366991993	1.0271505980378624	0.40282879371603986	0.4390948260991521	1.0397049379787888	0.03866670486616641	0.5266115754018719	0.39364629768611326	-0.027188129581678416	0.525731082280031	0.6554055443131473	-0.034554377196175316	0.47855195900892145	0.8959498331677949	0.00912702967945237	0.42104341943242696	0.9878372272540533	-0.004702943284192521	0.4041031535595464	1.0139214476390095	-0.05485953486727288	0.44655361327012943	1.000300832799328
92	1.5333333333333334	0.2932473058245948	0.5057465984721232	0.8723095976455602	0.28437310529049115	0.5573725252249757	1.303511411284351	0.27049232280690394	0.5899168745270013	1.7367374782571083	0.27301024756077136	0.3725072103844891	1.730685331087594	0.3373518928080129	0.39677680108854807	1.7297543387942014	0.2409856107186707	0.6550313994535848	1.801727021304587	0.07265347475958991	0.5300388834319238	0.8854770135718649	0.07549949824360165	0.5454831666768382	1.3022639551531257	0.0713785727748175	0.5464416828591251	1.7329711051737249	0.10894100716979842	0.3422657529439704	1.728170537057164	0.05003703877616126	0.39175695647415	1.7511747919493317	0.08404737901634607	0.5703779602091908	1.7768111078353546	0.1901335012080885	0.5304060716794939	0.3138642930771769	0.21026119977397195	0.4939383626319239	0.0451915583037598	0.19865114013172208	0.4032707681168497	0.1908223253929809	0.33604027772381106	0.5159704466686714	0.40158152277754644	0.40334393977821864	0.5450091723242336	0.6746553889963838	0.4100417134957088	0.425248600649163	0.8926056439524237	0.3548825993133477	0.3996615833525231	1.0091022427198284	0.3840496986339252	0.38810344188793183	1.023442110458128	0.4040594956494148	0.4344029937732225	1.0386663572989039	0.038649345439288704	0.5264588098740454	0.39360562364779494	-0.027321176388401265	0.5254467915132249	0.6559367248458564	-0.03123024939247558	0.4724668491874042	0.8942160639077227	0.009363803888615761	0.4208020903021593	0.9883673625174101	-0.004249170825214577	0.4030362550885741	1.0140080939381222	-0.05469251255423341	0.4457718713484604	1.0014605577240017
93	1.55	0.2931823199238089	0.5072288338844173	0.8730941295477359	0.28286716832714054	0.5552900345204861	1.3018352749193765	0.2703205988413499	0.5901314759183548	1.7368641485379304	0.27320465206192523	0.3732095384443227	1.7310791659430977	0.33795700462093714	0.3978206864262146	1.7286936584903734	0.24074516343913793	0.6541426977016904	1.8011648758056134	0.07308750557327735	0.5301181408042522	0.8865393811563471	0.0755060599070164	0.5455016875034444	1.3022690718681542	0.07131412114354407	0.5466745070795341	1.7325606455360534	0.10911239203523257	0.3422389962912935	1.725821673948661	0.05003629887340482	0.3916327365614068	1.7511997754897908	0.08429767376076319	0.5709265895724902	1.778499105906267	0.19062214435050853	0.5309383399274522	0.315246893684713	0.21027488723404908	0.49360647249779827	0.04616619181993233	0.19915243373837752	0.40315560445198934	0.19156866936692996	0.3360302364844755	0.5160123228901337	0.40162345551326223	0.4033737632997614	0.5450932214080982	0.67471089928099	0.4108288563913911	0.4219502263254673	0.8919439469878198	0.3576685015672721	0.3905186391321091	1.0060009123377218	0.38543617882293824	0.380745654400157	1.0201988370314845	0.40499944963009826	0.4318502492532826	1.0373186488126112	0.038650492338492375	0.526390186137855	0.3936572821575234	-0.027424643990668515	0.5255660841785492	0.6560617917972783	-0.028343250011723303	0.46711745119745857	0.8928671994011352	0.009684937444974076	0.42098927418645926	0.990029774969046	-0.004242447891046851	0.4033323978641691	1.014428943718611	-0.05482810613804094	0.44411817244807095	1.0024974620814027
94	1.5666666666666669	0.29266192114974043	0.5107810747645776	0.8745010053895503	0.28198252250613826	0.5546824775452306	1.301649688600219	0.2702754731893702	0.5900497000853937	1.736794748199606	0.27345440960310163	0.37437067470742763	1.731733392331852	0.33738126608648084	0.3986036746650038	1.7280182060073634	0.2407397157484887	0.6539190280695918	1.8015445652339954	0.07348940599975459	0.5301408463126879	0.8873301507133643	0.07552010649522821	0.5454528997292963	1.3022722712082329	0.07135478062890405	0.5468695191794299	1.7329889121150601	0.10919189243461642	0.34241104387772575	1.726413074144257	0.050028577578571154	0.391602529537341	1.7512454979801353	0.08450002556293967	0.5713450096718827	1.7797955579185714	0.19073846798188382	0.531236322676894	0.3162357355077795	0.21032120619496722	0.49332582286580123	0.047181708583138866	0.1992098908745949	0.40290950689842814	0.1918056033656052	0.33591540158267275	0.5160123021631665	0.4016557675293579	0.40253360618795425	0.545807402338482	0.6750026002912355	0.4111356222768578	0.41719445860213183	0.8905596474244905	0.361246395940741	0.3806651022282931	1.0039043720440242	0.3880450164191953	0.37388947013406143	1.0177438718038172	0.405991700299437	0.4297408166584912	1.0360579699123413	0.038639370785055194	0.5263024773603064	0.39405036567963475	-0.027455461668250344	0.5256844953087171	0.6560305059312151	-0.026595774325850956	0.463798703362533	0.8923003503462763	0.010021323376429662	0.42154539140663133	0.9927074430385192	-0.004292909599590536	0.40414380277687195	1.0148942339351885	-0.055013861386383145	0.44157454750851854	1.0046681226474394
95	1.5833333333333333	0.2912471569238235	0.5153757335994882	0.8761524038339987	0.2816854297553374	0.5547702154901609	1.3032669664707874	0.27035153563619496	0.5897115801928184	1.7365659631537482	0.27350049838736595	0.37481080410707707	1.7320172331877315	0.3366780744909563	0.3990199885364923	1.7286435772282291	0.24108178399061794	0.6545461502294537	1.8032422767263228	0.07356019917672424	0.5299580265494905	0.8874860047801966	0.07552970181547268	0.5453340741588641	1.302258670045339	0.07159325091003749	0.5469415937367132	1.734412098846004	0.10919083605385604	0.34277971492131865	1.7300867946202878	0.05000465559897084	0.3916677506139369	1.7513096010681042	0.0846105190899492	0.5715031575509522	1.7802989628140828	0.1907365310334019	0.53131114716385	0.3166518265530528	0.21040555513119646	0.4930683317456193	0.04856400585170648	0.19902105262681452	0.40279643295797574	0.1917054274482624	0.3358397145461092	0.5160386482339976	0.4016817579746574	0.40050665122294254	0.5466893455962306	0.6754170187007373	0.4108740756964591	0.41233423072887226	0.8887071883902721	0.36424710858322656	0.370651702805738	1.001591287958256	0.3909931821726809	0.3694429916217651	1.0160480637676341	0.4069053119248399	0.427782971725045	1.0352782128560172	0.03859656344353896	0.5261504628754738	0.3949699920969659	-0.027444011524542053	0.5257096083395907	0.6559667912787023	-0.02600226373209298	0.46267959726543567	0.8923816498418311	0.010220634877975079	0.4222829676280846	0.9953084458923435	-0.004347192350953568	0.4047752617262089	1.0152643333098623	-0.0549763494447398	0.4394088994433796	1.008989963707643
96	1.6	0.2897758994125911	0.5188505797244249	0.8773107618975405	0.28161988375176156	0.5549853360923729	1.3062055021334844	0.27030213764210004	0.5897126453995803	1.7365695479493044	0.2734625977409511	0.37496804739652756	1.7322455550868034	0.33653298933425413	0.4001011897343286	1.7309905544970814	0.2415484645073877	0.6553455735107713	1.8054701732817553	0.07331895303334669	0.5294811815172757	0.8870568657745372	0.07552519680272884	0.5452075734409404	1.302203730493063	0.07193443186456107	0.546929238893197	1.7354022557244302	0.10914719220757725	0.3430848009033689	1.7342740021632606	0.04997003858050319	0.39175888339901044	1.7513819100445673	0.08466499428693611	0.571475455260941	1.7802505503913377	0.1907500018860555	0.531289751783478	0.3167185616132509	0.2105060849430072	0.4928269015648475	0.050008669311056686	0.19857555861573342	0.40289465179189154	0.1914881071905603	0.3358244327586889	0.5160991844910024	0.4017152903637095	0.39785144908530823	0.5474398458615869	0.6758225028871174	0.41061333345098433	0.4092706888881983	0.8873985881416134	0.36610472651325837	0.36190551867453613	0.9989506192712618	0.39275142982888966	0.36750555040600374	1.015438083597068	0.40740617034816	0.4266694733617704	1.0349983659808681	0.03853593390693397	0.5259924871945618	0.39614649618007836	-0.027423520416858985	0.5256859115387202	0.6559043836690107	-0.025988637015101058	0.4628008393659957	0.8929254921884681	0.01018600235383041	0.4228601303455456	0.9965787757653617	-0.004518610255406536	0.40412577441409114	1.0150998934688402	-0.05448102411433206	0.4378819520934879	1.0140459646969315
97	1.6166666666666667	0.28908678157442885	0.5203069153846309	0.8777854649194348	0.28152438367324123	0.5550941031962031	1.3091616933470862	0.26967411055898566	0.59128116540572	1.7376108422708305	0.27364416543340275	0.37604550979670864	1.7331455188189082	0.3370458064120978	0.4027986138331967	1.7343659487816372	0.24161495315713682	0.655592632959474	1.8070590446507426	0.07301831445144737	0.528855073042944	0.8864319360189381	0.07550122135117995	0.5451357082139285	1.3021223453919182	0.07219122505095182	0.5468731415667345	1.7348470440530641	0.10904540066411479	0.3430250952252616	1.736670474858602	0.04994322030926443	0.3918151022584363	1.7514212842835408	0.08469968430395432	0.5714028701195687	1.7800625970731705	0.19080749846761083	0.5312534737057639	0.3167710704708447	0.2105962035256669	0.4926538274301393	0.05097870953880455	0.19796982064887128	0.4031552276168408	0.19145601277204594	0.3358488476604757	0.5161677270639138	0.40175633737270156	0.39581320993360375	0.5478016379852418	0.6760344803124881	0.41095125815322947	0.40917073537348075	0.8872349007666805	0.36681555309749836	0.3563847666691969	0.9968745982932887	0.39271268625775496	0.36698826166016735	1.0164498035330602	0.4075023948767621	0.4264625013698415	1.0350249678843704	0.03848558470471127	0.5259144200199091	0.39700918814005615	-0.0274133690256108	0.5256832145788889	0.6559614217279753	-0.026004308839752622	0.4632303198102401	0.8937960947228284	0.009968417314534071	0.4230134236578715	0.9963602669701659	-0.0049247400030568425	0.40108736978449433	1.0139068106595155	-0.053710373053099905	0.43586900981755583	1.0174015094552686
